<?xml version="1.0" encoding="UTF-8" standalone="no"?>
<!-- Created with Inkscape (http://www.inkscape.org/) -->

<svg
   xmlns:dc="http://purl.org/dc/elements/1.1/"
   xmlns:cc="http://creativecommons.org/ns#"
   xmlns:rdf="http://www.w3.org/1999/02/22-rdf-syntax-ns#"
   xmlns:svg="http://www.w3.org/2000/svg"
   xmlns="http://www.w3.org/2000/svg"
   xmlns:sodipodi="http://sodipodi.sourceforge.net/DTD/sodipodi-0.dtd"
   xmlns:inkscape="http://www.inkscape.org/namespaces/inkscape"
   version="1.1"
   id="svg10049"
   xml:space="preserve"
   width="500.00003"
   height="500"
   viewBox="0 0 500.00003 499.99999"
   sodipodi:docname="bicycle.svg"
   inkscape:version="0.92.5 (2060ec1f9f, 2020-04-08)"><metadata
     id="metadata10055"><rdf:RDF><cc:Work
         rdf:about=""><dc:format>image/svg+xml</dc:format><dc:type
           rdf:resource="http://purl.org/dc/dcmitype/StillImage" /></cc:Work></rdf:RDF></metadata><defs
     id="defs10053"><clipPath
       clipPathUnits="userSpaceOnUse"
       id="clipPath10065"><path
         d="M 0,581.971 H 577.471 V 0 H 0 Z"
         id="path10063"
         inkscape:connector-curvature="0" /></clipPath></defs><sodipodi:namedview
     pagecolor="#ffffff"
     bordercolor="#666666"
     borderopacity="1"
     objecttolerance="10"
     gridtolerance="10"
     guidetolerance="10"
     inkscape:pageopacity="0"
     inkscape:pageshadow="2"
     inkscape:window-width="2030"
     inkscape:window-height="648"
     id="namedview10051"
     showgrid="false"
     inkscape:zoom="0.86023465"
     inkscape:cx="622.89407"
     inkscape:cy="188.85477"
     inkscape:window-x="6"
     inkscape:window-y="688"
     inkscape:window-maximized="0"
     inkscape:current-layer="g10057" /><g
     id="g10057"
     inkscape:groupmode="layer"
     inkscape:label="bike-1992996"
     transform="matrix(1.3333333,0,0,-1.3333333,573.67169,577.52709)"><rect
       transform="scale(1,-1)"
       y="-433.14532"
       x="-430.25375"
       height="375"
       width="375"
       id="rect10192"
       style="opacity:1;fill:none;fill-opacity:1;fill-rule:evenodd;stroke:none;stroke-width:2.83464575;stroke-miterlimit:4;stroke-dasharray:none;stroke-opacity:1" /><g
       transform="translate(-484.75148,-15.929041)"
       id="g10220"><g
         id="g10171"
         transform="matrix(0.78620244,0,0,0.78620244,11.651477,30.720446)"><g
           id="g10067"
           transform="translate(563.1005,285.996)" /><g
           id="g10071"
           transform="translate(148.1067,316.9997)"><path
             d="m 0,0 c -43.79,0 -79.415,-35.626 -79.415,-79.415 0,-43.791 35.625,-79.416 79.415,-79.416 43.79,0 79.415,35.625 79.415,79.416 C 79.415,-35.626 43.79,0 0,0 m 0,-173.024 c -51.616,0 -93.609,41.992 -93.609,93.609 0,51.616 41.993,93.608 93.609,93.608 51.616,0 93.609,-41.992 93.609,-93.608 0,-51.617 -41.993,-93.609 -93.609,-93.609"
             style="fill:#0c2328;fill-opacity:1;fill-rule:nonzero;stroke:none"
             id="path10073"
             inkscape:connector-curvature="0" /></g><g
           id="g10075"
           transform="translate(437.8651,316.7134)"><path
             d="m 0,0 c -43.79,0 -79.415,-35.626 -79.415,-79.415 0,-43.791 35.625,-79.416 79.415,-79.416 43.79,0 79.415,35.625 79.415,79.416 C 79.415,-35.626 43.79,0 0,0 m 0,-173.024 c -51.616,0 -93.609,41.992 -93.609,93.609 0,51.616 41.993,93.608 93.609,93.608 51.616,0 93.609,-41.992 93.609,-93.608 0,-51.617 -41.993,-93.609 -93.609,-93.609"
             style="fill:#0c2328;fill-opacity:1;fill-rule:nonzero;stroke:none"
             id="path10077"
             inkscape:connector-curvature="0" /></g><g
           id="g10079"
           transform="translate(308.6044,208.7035)"><path
             d="m 0,0 c -1.904,0 -3.602,1.345 -3.98,3.283 l -8.312,42.615 c -0.43,2.2 1.007,4.332 3.208,4.762 2.2,0.432 4.332,-1.008 4.761,-3.208 L 3.989,4.837 C 4.418,2.637 2.982,0.505 0.781,0.076 0.519,0.024 0.257,0 0,0"
             style="fill:#0c2328;fill-opacity:1;fill-rule:nonzero;stroke:none"
             id="path10081"
             inkscape:connector-curvature="0" /></g><g
           id="g10083"
           transform="translate(228.0529,237.5842)"><path
             d="m 0,0 c 0,-44.153 -35.793,-79.946 -79.946,-79.946 -44.153,0 -79.946,35.793 -79.946,79.946 0,44.153 35.793,79.946 79.946,79.946 C -35.793,79.946 0,44.153 0,0"
             style="fill:#caf1ff;fill-opacity:1;fill-rule:nonzero;stroke:none"
             id="path10085"
             inkscape:connector-curvature="0" /></g><g
           id="g10087"
           transform="translate(517.8373,237.5842)"><path
             d="m 0,0 c 0,-44.153 -35.793,-79.946 -79.946,-79.946 -44.153,0 -79.946,35.793 -79.946,79.946 0,44.153 35.793,79.946 79.946,79.946 C -35.793,79.946 0,44.153 0,0"
             style="fill:#caf1ff;fill-opacity:1;fill-rule:nonzero;stroke:none"
             id="path10089"
             inkscape:connector-curvature="0" /></g><g
           id="g10091"
           transform="translate(346.4293,343.5404)"><path
             d="m 0,0 c -0.577,0 -1.163,0.089 -1.741,0.278 -2.953,0.961 -4.566,4.133 -3.605,7.085 l 9.435,28.978 c 0.961,2.952 4.135,4.566 7.085,3.604 2.952,-0.961 4.566,-4.133 3.605,-7.085 L 5.344,3.882 C 4.571,1.509 2.368,0 0,0"
             style="fill:#055368;fill-opacity:1;fill-rule:nonzero;stroke:none"
             id="path10093"
             inkscape:connector-curvature="0" /></g><g
           id="g10095"
           transform="translate(392.505,399.7928)"><path
             d="m 0,0 c 0,0 -79.946,2.498 -79.113,-3.747 0.832,-6.246 30.954,-18.738 37.754,-20.403 6.799,-1.666 28.451,3.331 30.533,5.829 C -8.744,-15.823 2.498,-8.328 0,0"
             style="fill:#0c2328;fill-opacity:1;fill-rule:nonzero;stroke:none"
             id="path10097"
             inkscape:connector-curvature="0" /></g><g
           id="g10099"
           transform="translate(326.6468,165.5233)"><path
             d="m 0,0 h -18.755 c -0.297,0 -0.538,0.241 -0.538,0.538 v 7.2 c 0,0.297 0.241,0.538 0.538,0.538 H 0 c 0.297,0 0.538,-0.241 0.538,-0.538 v -7.2 C 0.538,0.241 0.297,0 0,0"
             style="fill:#0c2328;fill-opacity:1;fill-rule:nonzero;stroke:none"
             id="path10101"
             inkscape:connector-curvature="0" /></g><g
           id="g10103"
           transform="translate(309.2078,254.726)"><path
             d="m 0,0 h -18.755 c -0.297,0 -0.538,0.241 -0.538,0.538 v 7.2 c 0,0.297 0.241,0.538 0.538,0.538 H 0 c 0.297,0 0.538,-0.241 0.538,-0.538 v -7.2 C 0.538,0.241 0.297,0 0,0"
             style="fill:#0c2328;fill-opacity:1;fill-rule:nonzero;stroke:none"
             id="path10105"
             inkscape:connector-curvature="0" /></g><g
           id="g10107"
           transform="translate(321.5372,223.7002)"><path
             d="m 0,0 c -1.242,1.532 -2.797,2.837 -4.578,3.835 l 33.219,114.384 1.85,6.373 76.087,-104.417 z m -15.719,4.951 c -0.768,-0.12 -1.517,0.127 -2.243,-0.088 l -95.012,114.313 c 1.238,3.82 2.462,3.698 3.66,10.698 H 20.802 Z M 116.723,25.342 32.831,140.471 c -0.007,0.009 -0.015,0.016 -0.021,0.025 -0.01,0.013 -0.017,0.027 -0.027,0.04 -0.139,0.186 -0.29,0.36 -0.45,0.525 -0.035,0.037 -0.074,0.068 -0.11,0.103 -0.138,0.135 -0.28,0.265 -0.429,0.384 -0.065,0.052 -0.132,0.098 -0.199,0.147 -0.13,0.094 -0.262,0.184 -0.399,0.267 -0.075,0.045 -0.151,0.089 -0.228,0.131 -0.139,0.075 -0.282,0.144 -0.427,0.208 -0.077,0.033 -0.152,0.068 -0.229,0.098 -0.168,0.065 -0.34,0.119 -0.513,0.167 -0.059,0.017 -0.115,0.038 -0.174,0.052 -0.232,0.057 -0.468,0.1 -0.707,0.127 -0.059,0.006 -0.119,0.052 -0.178,0.056 -0.15,0.012 -0.3,0.073 -0.452,0.073 h -133.983 c 5.117,12 9.35,29.635 11.301,35.774 0.188,0.589 0.269,2.226 0.258,2.226 h -11.853 l 0.221,-0.944 c -3.823,-12.014 -8.229,-26.014 -12.73,-39.982 -0.138,-0.269 -0.255,-0.668 -0.349,-0.962 l -5.771,-18.141 c -11.315,-34.878 -21.833,-66.608 -23.721,-70.268 -2.033,-3.374 -14.457,-15.53 -24.964,-25.321 -0.456,0.071 -0.921,0.112 -1.397,0.112 -5.002,0 -9.057,-4.058 -9.057,-9.06 0,-5.002 4.055,-9.058 9.057,-9.058 5.002,0 9.056,4.053 9.056,9.055 0,0.227 -0.017,0.449 -0.034,0.672 8.665,8.06 23.924,22.603 27.049,27.903 1.969,3.34 11.633,32.263 21.54,62.669 L -26.997,-1.436 c -1.382,-2.192 -2.176,-4.736 -2.176,-7.451 0,-8.221 7.247,-14.886 16.187,-14.886 8.21,0 14.988,5.623 16.04,12.909 L 110.432,9.462 c 1.589,-1.376 3.655,-2.214 5.922,-2.214 5.002,0 9.056,4.055 9.056,9.056 0,4.877 -3.858,8.843 -8.687,9.038"
             style="fill:#4d6fbc;fill-opacity:1;fill-rule:nonzero;stroke:none"
             id="path10109"
             inkscape:connector-curvature="0" /></g><g
           id="g10111"
           transform="translate(226.8906,406.3609)"><path
             d="m 0,0 -5.955,13.487 8.999,10.726 h 26.204 c 3.105,0 5.621,3.396 5.621,6.5 0,3.105 -2.516,6.5 -5.621,6.5 H 0.517 c -1.607,0 -3.137,-2.384 -4.204,-3.586 l -13.116,-15.63 c -1.482,-1.67 -1.836,-4.018 -0.9,-6.045 l 6.36,-13.739 H 0.51 C 0.496,-1.787 0.329,-0.713 0,0"
             style="fill:#0c2328;fill-opacity:1;fill-rule:nonzero;stroke:none"
             id="path10113"
             inkscape:connector-curvature="0" /></g><g
           id="g10115"
           transform="translate(316.9551,165.8869)"><path
             d="m 0,0 c -1.904,0 -3.602,1.345 -3.98,3.283 l -8.312,42.615 c -0.43,2.201 1.007,4.332 3.208,4.762 2.201,0.43 4.332,-1.007 4.761,-3.208 L 3.989,4.837 C 4.418,2.637 2.982,0.505 0.781,0.076 0.519,0.024 0.257,0 0,0"
             style="fill:#0c2328;fill-opacity:1;fill-rule:nonzero;stroke:none"
             id="path10117"
             inkscape:connector-curvature="0" /></g></g></g></g></svg>
