<?xml version="1.0" encoding="UTF-8" standalone="no"?>
<svg
   xmlns:dc="http://purl.org/dc/elements/1.1/"
   xmlns:cc="http://creativecommons.org/ns#"
   xmlns:rdf="http://www.w3.org/1999/02/22-rdf-syntax-ns#"
   xmlns:svg="http://www.w3.org/2000/svg"
   xmlns="http://www.w3.org/2000/svg"
   xmlns:sodipodi="http://sodipodi.sourceforge.net/DTD/sodipodi-0.dtd"
   xmlns:inkscape="http://www.inkscape.org/namespaces/inkscape"
   enable-background="new 0 0 800 600"
   version="1.1"
   viewBox="0 0 403 398.99899"
   id="svg465"
   sodipodi:docname="photography.svg"
   width="403"
   height="398.99899"
   inkscape:version="0.92.5 (2060ec1f9f, 2020-04-08)">
  <metadata
     id="metadata471">
    <rdf:RDF>
      <cc:Work
         rdf:about="">
        <dc:format>image/svg+xml</dc:format>
        <dc:type
           rdf:resource="http://purl.org/dc/dcmitype/StillImage" />
      </cc:Work>
    </rdf:RDF>
  </metadata>
  <defs
     id="defs469" />
  <sodipodi:namedview
     pagecolor="#ffffff"
     bordercolor="#666666"
     borderopacity="1"
     objecttolerance="10"
     gridtolerance="10"
     guidetolerance="10"
     inkscape:pageopacity="0"
     inkscape:pageshadow="2"
     inkscape:window-width="2030"
     inkscape:window-height="648"
     id="namedview467"
     showgrid="false"
     inkscape:zoom="0.39333333"
     inkscape:cx="-324.77119"
     inkscape:cy="199.499"
     inkscape:window-x="6"
     inkscape:window-y="688"
     inkscape:window-maximized="0"
     inkscape:current-layer="g461" />
  <g
     id="g461"
     transform="translate(-198.5,-100.5)">
    <g
       id="g666">
      <path
         d="m 218.5,483.5 c -9.374,0 -17,-7.626 -17,-17 v -106 c 0,-9.374 7.626,-17 17,-17 h 363 c 9.589,0 18,7.944 18,17 v 106 c 0,9.374 -7.626,17 -17,17 z"
         id="path271"
         inkscape:connector-curvature="0"
         style="fill:#84817d" />
      <path
         d="m 581.5,345.5 c 8.284,0 16,6.716 16,15 v 106 c 0,8.284 -6.716,15 -15,15 h -364 c -8.284,0 -15,-6.716 -15,-15 v -106 c 0,-8.284 6.716,-15 15,-15 h 363 m 0,-4 h -363 c -10.477,0 -19,8.523 -19,19 v 106 c 0,10.477 8.523,19 19,19 h 364 c 10.477,0 19,-8.523 19,-19 v -106 c 0,-10.299 -9.159,-19 -20,-19 z"
         id="path273"
         inkscape:connector-curvature="0"
         style="fill:#3a3a3a" />
      <path
         d="m 585.5,448.5 c 0,8.284 -6.716,15 -15,15 h -340 c -8.284,0 -15,-6.716 -15,-15 v -34 c 0,-8.284 6.716,-7 15,-7 h 340 c 8.284,0 15,-1.284 15,7 z"
         id="path275"
         inkscape:connector-curvature="0"
         style="fill:#494744" />
      <path
         d="m 570.5,465.5 h -340 c -9.374,0 -17,-7.626 -17,-17 v -34 c 0,-9.072 7.449,-9.072 11.45,-9.072 0.842,0 1.721,0.018 2.63,0.035 0.944,0.019 1.92,0.037 2.92,0.037 h 340 c 0.999,0 1.976,-0.019 2.92,-0.037 0.908,-0.018 1.788,-0.035 2.63,-0.035 4.002,0 11.45,0 11.45,9.072 v 34 c 0,9.374 -7.626,17 -17,17 z M 224.95,409.428 c -5.988,0 -7.45,0.996 -7.45,5.072 v 34 c 0,7.168 5.832,13 13,13 h 340 c 7.168,0 13,-5.832 13,-13 v -34 c 0,-4.076 -1.462,-5.072 -7.45,-5.072 -0.817,0 -1.671,0.017 -2.553,0.034 -0.969,0.019 -1.971,0.038 -2.997,0.038 h -340 c -1.026,0 -2.028,-0.02 -2.998,-0.038 -0.881,-0.018 -1.734,-0.034 -2.552,-0.034 z"
         id="path277"
         inkscape:connector-curvature="0"
         style="fill:#3a3a3a" />
      <path
         d="m 585.5,413.5 c 0,8.284 -6.716,15 -15,15 h -340 c -8.284,0 -15,-6.716 -15,-15 v -6 c 0,-8.284 6.716,-15 15,-15 h 340 c 8.284,0 15,6.716 15,15 z"
         id="path279"
         inkscape:connector-curvature="0"
         style="fill:#84817d" />
      <path
         d="m 570.5,392.5 h -340 c -8.284,0 -15,6.716 -15,15 v 4 c 0,-8.284 6.716,-15 15,-15 h 340 c 8.284,0 15,6.716 15,15 v -4 c 0,-8.284 -6.716,-15 -15,-15 z"
         id="path281"
         inkscape:connector-curvature="0"
         style="fill:#999692" />
      <path
         d="m 570.5,422.5 h -340 c -8.284,0 -15,-6.716 -15,-15 v 6 c 0,8.284 6.716,15 15,15 h 340 c 8.284,0 15,-6.716 15,-15 v -6 c 0,8.284 -6.716,15 -15,15 z"
         id="path283"
         inkscape:connector-curvature="0"
         style="fill:#5e5c59" />
      <path
         d="m 570.5,430.5 h -340 c -9.374,0 -17,-7.626 -17,-17 v -6 c 0,-9.374 7.626,-17 17,-17 h 340 c 9.374,0 17,7.626 17,17 v 6 c 0,9.374 -7.626,17 -17,17 z m -340,-36 c -7.168,0 -13,5.832 -13,13 v 6 c 0,7.168 5.832,13 13,13 h 340 c 7.168,0 13,-5.832 13,-13 v -6 c 0,-7.168 -5.832,-13 -13,-13 z"
         id="path285"
         inkscape:connector-curvature="0"
         style="fill:#3a3a3a" />
      <path
         d="m 466.76,129.5 c -7.313,0 -13.262,-5.949 -13.262,-13.262 v -0.477 c 0,-7.313 5.949,-13.262 13.262,-13.262 h 59.477 c 7.313,0 13.262,5.949 13.262,13.262 v 0.477 c 0,7.313 -5.949,13.262 -13.262,13.262 z"
         id="path287"
         inkscape:connector-curvature="0"
         style="fill:#84817d" />
      <path
         d="m 526.37,104.5 c 6.22,0 11.131,5.042 11.131,11.262 v 0.477 c 0,6.22 -5.042,11.262 -11.262,11.262 h -59.477 c -6.22,0 -11.262,-5.042 -11.262,-11.262 v -0.477 c 0,-6.22 5.042,-11.262 11.262,-11.262 h 59.739 m -0.262,-4 h -59.477 c -8.415,0 -15.262,6.846 -15.262,15.262 v 0.477 c 0,8.416 6.847,15.262 15.262,15.262 h 59.477 c 8.415,0 15.262,-6.846 15.262,-15.262 v -0.477 c 0,-8.416 -6.847,-15.262 -15.262,-15.262 z"
         id="path289"
         inkscape:connector-curvature="0"
         style="fill:#3a3a3a" />
      <path
         d="m 526.24,104.5 h -35.738 v 13 h 46.925 c 0.047,-0.415 0.075,-0.834 0.075,-1.262 v -0.477 c 0,-6.219 -5.042,-11.261 -11.262,-11.261 z"
         id="path291"
         inkscape:connector-curvature="0"
         style="fill:#5e5c59" />
      <rect
         x="483.5"
         y="104.5"
         width="4"
         height="12"
         id="rect293"
         style="fill:#5e5c59" />
      <rect
         x="479.5"
         y="104.5"
         width="2"
         height="12"
         id="rect295"
         style="fill:#5e5c59" />
      <path
         d="m 225.45,138.49 c -0.828,0 -1.572,-0.511 -1.868,-1.287 -0.3,-0.787 -0.076,-1.677 0.562,-2.227 0.513,-0.442 12.626,-10.875 19.253,-14.191 10.567,-5.288 17.268,-5.288 42.199,-5.288 h 230.76 c 24.941,0 31.645,0 42.211,5.288 6.627,3.316 18.752,13.748 19.265,14.19 0.638,0.55 0.862,1.44 0.562,2.227 -0.296,0.776 -1.04,1.287 -1.868,1.287 -0.012,0 -174.06,-2.992 -174.06,-2.992 h -2.967 c 0,10e-4 -174.04,2.993 -174.05,2.993 z"
         id="path297"
         inkscape:connector-curvature="0"
         style="fill:#84817d" />
      <path
         d="m 516.43,117.5 c 24.638,0 31.136,0 41.28,5.076 6.479,3.243 18.835,13.916 18.835,13.916 L 402.505,133.5 h -3 l -174.05,2.992 c 0,0 12.361,-10.673 18.841,-13.916 10.145,-5.076 16.667,-5.076 41.304,-5.076 h 230.9 m -0.144,-4 h -230.76 c -24.662,0 -32.104,0 -43.094,5.499 -6.848,3.427 -19.146,14.017 -19.666,14.466 -1.274,1.1 -1.723,2.885 -1.123,4.458 0.592,1.551 2.081,2.577 3.736,2.577 h 0.069 l 174.01,-3 h 2.931 l 173.99,3 h 0.069 c 1.656,0 3.145,-1.026 3.736,-2.578 0.601,-1.573 0.15,-3.356 -1.125,-4.457 -0.521,-0.449 -12.828,-11.039 -19.675,-14.465 -10.988,-5.499 -18.435,-5.5 -43.106,-5.5 z"
         id="path299"
         inkscape:connector-curvature="0"
         style="fill:#3a3a3a" />
      <path
         d="M 516.36,117.5 H 400.5 v 16 h 2 l 174.02,2.992 c 0,0 -12.373,-10.673 -18.853,-13.916 C 547.523,117.5 540.989,117.5 516.351,117.5 Z"
         id="path301"
         inkscape:connector-curvature="0"
         style="fill:#5e5c59" />
      <path
         d="m 407.11,133.4 c -0.194,0.063 -0.399,0.095 -0.607,0.095 -0.009,0 -4.025,-0.052 -4.025,-0.052 0,0 -3.966,0.052 -3.975,0.052 -0.209,0 -0.414,-0.033 -0.609,-0.095 0,0 -68.256,1.028 -68.266,1.028 -0.625,0 -1.215,-0.292 -1.593,-0.791 -0.384,-0.507 -0.505,-1.166 -0.325,-1.776 0.121,-0.407 2.963,-10.011 4.211,-13.689 l 0.113,-0.334 c 1.451,-4.299 3.103,-7.343 11.2,-7.343 h 118.66 c 8.072,0 9.716,3.027 11.155,7.304 l 0.126,0.373 c 1.25,3.683 4.064,13.351 4.184,13.76 0.177,0.61 0.054,1.267 -0.331,1.772 -0.379,0.496 -0.967,0.787 -1.59,0.787 -0.01,0 -68.33,-1.091 -68.33,-1.091 z"
         id="path303"
         inkscape:connector-curvature="0"
         style="fill:#4c4c49" />
      <path
         d="m 461.7,112.5 c 7.518,0 8.235,2.636 9.485,6.319 1.25,3.683 4.206,13.676 4.206,13.676 l -68.889,-1.1 v 0.104 l -3.998,-0.052 -4.001,0.053 v -0.104 l -68.875,1.038 c 0,0 2.938,-9.931 4.188,-13.614 1.25,-3.683 1.9,-6.319 9.419,-6.319 h 118.27 m 0.393,-4.001 h -118.66 c -9.395,0 -11.489,3.942 -13.095,8.704 l -0.111,0.33 c -1.261,3.715 -4.115,13.356 -4.236,13.765 -0.361,1.22 -0.12,2.573 0.649,3.586 0.757,0.997 1.937,1.615 3.187,1.615 h 0.06 l 67.965,-1.058 c 0.277,0.06 0.562,0.058 0.85,0.058 h 0.052 l 3.95,-0.051 3.945,0.052 h 0.053 c 0.286,0 0.57,-0.028 0.846,-0.088 l 68.028,1.088 h 0.063 c 1.246,0 2.423,-0.583 3.18,-1.575 0.771,-1.01 1.016,-2.326 0.661,-3.545 -0.12,-0.411 -2.945,-10.121 -4.209,-13.845 l -0.125,-0.369 c -1.596,-4.742 -3.68,-8.667 -13.05,-8.667 z"
         id="path305"
         inkscape:connector-curvature="0"
         style="fill:#3a3a3a" />
      <path
         d="m 475.42,132.45 c -0.201,-0.69 -2.939,-10.085 -4.144,-13.632 -1.25,-3.683 -1.869,-6.319 -9.388,-6.319 h -45.394 v 19 z"
         id="path307"
         inkscape:connector-curvature="0"
         style="fill:#474541" />
      <path
         d="m 217.5,305.5 c -1.104,0 -2,-0.896 -2,-2 v -155 c 0,-9.374 7.626,-17 17,-17 h 335 c 9.374,0 17,7.626 17,17 v 155 c 0,1.104 -0.896,2 -2,2 z"
         id="path309"
         inkscape:connector-curvature="0"
         style="fill:#dbd0b3" />
      <path
         d="m 567.5,133.5 c 8.284,0 15,6.716 15,15 v 155 h -365 v -155 c 0,-8.284 6.716,-15 15,-15 h 335 m 0,-4 h -335 c -10.477,0 -19,8.523 -19,19 v 155 c 0,2.209 1.791,4 4,4 h 365 c 2.209,0 4,-1.791 4,-4 v -155 c 0,-10.477 -8.523,-19 -19,-19 z"
         id="path311"
         inkscape:connector-curvature="0"
         style="fill:#3a3a3a" />
      <path
         d="m 571.5,217.5 c 0,8.284 -6.716,15 -15,15 h -58 c -8.284,0 -15,-6.716 -15,-15 v -29 c 0,-8.284 6.716,-15 15,-15 h 58 c 8.284,0 15,6.716 15,15 z"
         id="path313"
         inkscape:connector-curvature="0"
         style="fill:#c6b99b" />
      <path
         d="m 324.5,209.5 c 0,8.284 -6.716,15 -15,15 h -58 c -8.284,0 -15,-6.716 -15,-15 v -8 c 0,-8.284 6.716,-15 15,-15 h 58 c 8.284,0 15,6.716 15,15 z"
         id="path315"
         inkscape:connector-curvature="0"
         style="fill:#c6b99b" />
      <path
         d="m 217.5,381.5 c -9.374,0 -17,-7.626 -17,-17 v -11 c 0,-1.104 0.896,-2 2,-2 h 395 c 1.104,0 2,0.896 2,2 v 11 c 0,9.374 -7.626,17 -17,17 z"
         id="path317"
         inkscape:connector-curvature="0"
         style="fill:#c6b99b" />
      <path
         d="m 597.5,353.5 v 11 c 0,8.284 -6.716,15 -15,15 h -365 c -8.284,0 -15,-6.716 -15,-15 v -11 h 395 m 0,-4 h -395 c -2.209,0 -4,1.791 -4,4 v 11 c 0,10.477 8.523,19 19,19 h 365 c 10.477,0 19,-8.523 19,-19 v -11 c 0,-2.209 -1.791,-4 -4,-4 z"
         id="path319"
         inkscape:connector-curvature="0"
         style="fill:#3a3a3a" />
      <path
         d="m 217.5,362.5 c -8.146,0 -13.011,-1.455 -15.313,-4.581 -2.587,-3.513 -1.186,-8.027 0.051,-12.011 0.134,-0.43 0.267,-0.859 0.395,-1.286 2.154,-7.18 13.072,-41.329 13.182,-41.673 0.265,-0.829 1.035,-1.391 1.904,-1.392 l 172.64,-0.052 c 0.049,-0.004 0.147,-0.006 0.147,-0.006 h 17.999 c 0.05,0 0.1,0.002 0.148,0.006 l 173.75,0.052 c 0.868,10e-4 1.638,0.562 1.903,1.388 0.11,0.344 11.085,34.495 13.24,41.677 0.133,0.443 0.271,0.889 0.41,1.336 1.236,3.971 2.638,8.472 0.061,11.974 -2.294,3.116 -7.15,4.568 -15.282,4.568 h -365.23 z"
         id="path321"
         inkscape:connector-curvature="0"
         style="fill:#dbd0b3" />
      <path
         d="m 408.5,303.5 v 0.006 l 173.89,0.052 c 0,0 11.055,34.394 13.229,41.64 2.174,7.246 5.927,15.303 -12.896,15.303 h -365.23 c -18.822,0 -15.126,-8.057 -12.952,-15.303 2.174,-7.246 13.171,-41.64 13.171,-41.64 l 172.78,-0.052 V 303.5 l 9.003,0.003 8.997,-0.003 m 0,-4 -8.999,0.003 -9,-0.003 c -0.07,0 -0.14,0.002 -0.209,0.005 l -172.57,0.052 c -1.739,0 -3.279,1.125 -3.809,2.782 -0.449,1.405 -11.033,34.51 -13.192,41.708 -0.126,0.421 -0.258,0.844 -0.39,1.268 -1.309,4.217 -2.938,9.464 0.249,13.79 2.711,3.681 8.089,5.395 16.924,5.395 h 365.23 c 8.822,0 14.189,-1.711 16.893,-5.383 3.177,-4.316 1.548,-9.549 0.239,-13.754 -0.138,-0.44 -0.274,-0.879 -0.405,-1.315 -2.16,-7.2 -12.8,-40.309 -13.251,-41.714 -0.532,-1.654 -2.07,-2.776 -3.808,-2.776 l -173.69,-0.052 c -0.068,-0.004 -0.138,-0.006 -0.207,-0.006 z"
         id="path323"
         inkscape:connector-curvature="0"
         style="fill:#3a3a3a" />
      <path
         d="M 582.73,356.5 H 217.5 c -10.054,0 -13.681,-2.3 -14.549,-5.546 -0.953,5.188 0.707,9.546 14.549,9.546 h 365.23 c 13.808,0 15.463,-4.337 14.509,-9.507 -0.872,3.226 -4.495,5.507 -14.509,5.507 z"
         id="path325"
         inkscape:connector-curvature="0"
         style="fill:#e2d8c3" />
      <path
         d="m 220.55,497.5 c -0.611,0 -1.189,-0.279 -1.568,-0.759 -0.379,-0.479 -0.519,-1.105 -0.379,-1.7 l 15.35,-65.109 c 0.213,-0.903 1.019,-1.541 1.947,-1.541 l 164.6,0.104 164.62,-0.104 c 0.928,0 1.733,0.638 1.946,1.54 l 15.377,65.109 c 0.141,0.596 10e-4,1.222 -0.378,1.701 -0.379,0.479 -0.957,0.759 -1.568,0.759 h -359.95 z"
         id="path327"
         inkscape:connector-curvature="0"
         style="fill:#ffffff" />
      <path
         d="m 565.12,430.39 15.377,65.109 h -359.95 l 15.35,-65.109 164.6,0.104 164.62,-0.104 m 0,-3.891 h -0.003 l -164.62,0.104 -164.59,-0.104 h -0.002 c -1.855,0 -3.467,1.222 -3.893,3.027 l -15.35,65.082 c -0.281,1.189 -0.002,2.429 0.757,3.387 0.759,0.959 1.914,1.504 3.136,1.504 h 359.95 c 1.223,0 2.378,-0.56 3.137,-1.518 0.759,-0.959 1.037,-2.212 0.756,-3.401 l -15.377,-65.055 c -0.426,-1.805 -2.038,-3.026 -3.893,-3.026 z"
         id="path329"
         inkscape:connector-curvature="0"
         style="fill:#3a3a3a" />
      <polygon
         points="554.5,453.5 549.48,430.4 400.5,430.5 250.17,430.4 245.92,453.5 "
         id="polygon331"
         style="fill:#e5e4e3" />
      <path
         d="m 403.02,284.15 c -38.462,0 -69.754,-31.292 -69.754,-69.754 0,-38.462 31.292,-69.754 69.754,-69.754 38.463,0 69.754,31.292 69.754,69.754 0,38.462 -31.291,69.754 -69.754,69.754 z"
         id="path333"
         inkscape:connector-curvature="0"
         style="fill:#5e5c58" />
      <path
         d="m 403.02,146.65 c 37.42,0 67.754,30.334 67.754,67.754 0,37.42 -30.334,67.754 -67.754,67.754 -37.419,0 -67.754,-30.334 -67.754,-67.754 0,-37.42 30.334,-67.754 67.754,-67.754 m 0,-4 c -39.565,0 -71.754,32.188 -71.754,71.754 0,39.566 32.188,71.754 71.754,71.754 39.566,0 71.754,-32.188 71.754,-71.754 0,-39.566 -32.189,-71.754 -71.754,-71.754 z"
         id="path335"
         inkscape:connector-curvature="0"
         style="fill:#3a3a3a" />
      <rect
         x="385.5"
         y="281.5"
         width="5"
         height="18"
         id="rect337"
         style="fill:#d42d66" />
      <rect
         x="390.5"
         y="281.5"
         width="6"
         height="18"
         id="rect339"
         style="fill:#b91617" />
      <rect
         x="396.5"
         y="281.5"
         width="6"
         height="18"
         id="rect341"
         style="fill:#ec7f22" />
      <rect
         x="402.5"
         y="281.5"
         width="6"
         height="18"
         id="rect343"
         style="fill:#e6aa26" />
      <rect
         x="408.5"
         y="281.5"
         width="5"
         height="18"
         id="rect345"
         style="fill:#858d1c" />
      <rect
         x="413.5"
         y="281.5"
         width="6"
         height="18"
         id="rect347"
         style="fill:#2391b9" />
      <g
         id="g351"
         style="opacity:0.28000004">
        <circle
           cx="403.23999"
           cy="227.75999"
           r="72.738998"
           id="circle349"
           style="fill:#b2986b" />
      </g>
      <path
         d="m 403.02,294.15 c -38.462,0 -69.754,-31.292 -69.754,-69.754 0,-38.462 31.292,-69.754 69.754,-69.754 38.463,0 69.754,31.292 69.754,69.754 0,38.462 -31.291,69.754 -69.754,69.754 z"
         id="path353"
         inkscape:connector-curvature="0"
         style="fill:#e5e4e3" />
      <path
         d="m 403.02,156.65 c 37.42,0 67.754,30.334 67.754,67.754 0,37.42 -30.334,67.754 -67.754,67.754 -37.419,0 -67.754,-30.334 -67.754,-67.754 0,-37.42 30.334,-67.754 67.754,-67.754 m 0,-4 c -39.565,0 -71.754,32.188 -71.754,71.754 0,39.566 32.188,71.754 71.754,71.754 39.566,0 71.754,-32.188 71.754,-71.754 0,-39.566 -32.189,-71.754 -71.754,-71.754 z"
         id="path355"
         inkscape:connector-curvature="0"
         style="fill:#3a3a3a" />
      <path
         d="m 403.02,286.18 c -34.067,0 -61.783,-27.716 -61.783,-61.783 0,-34.067 27.716,-61.783 61.783,-61.783 34.067,0 61.783,27.716 61.783,61.783 0,34.067 -27.716,61.783 -61.783,61.783 z"
         id="path357"
         inkscape:connector-curvature="0"
         style="fill:#4c4c49" />
      <path
         d="m 403.02,164.62 c 33.018,0 59.783,26.766 59.783,59.783 0,33.017 -26.766,59.783 -59.783,59.783 -33.017,0 -59.783,-26.766 -59.783,-59.783 0,-33.017 26.765,-59.783 59.783,-59.783 m 0,-4 c -35.17,0 -63.783,28.613 -63.783,63.783 0,35.17 28.613,63.783 63.783,63.783 35.17,0 63.783,-28.613 63.783,-63.783 0,-35.17 -28.613,-63.783 -63.783,-63.783 z"
         id="path359"
         inkscape:connector-curvature="0"
         style="fill:#3a3a3a" />
      <path
         d="m 403.02,278.93 c -30.07,0 -54.533,-24.463 -54.533,-54.533 0,-30.07 24.463,-54.533 54.533,-54.533 30.069,0 54.533,24.463 54.533,54.533 0,30.07 -24.464,54.533 -54.533,54.533 z"
         id="path361"
         inkscape:connector-curvature="0"
         style="fill:#4c4c49" />
      <path
         d="m 403.02,171.87 c 29.014,0 52.533,23.52 52.533,52.533 0,29.013 -23.52,52.533 -52.533,52.533 -29.013,0 -52.533,-23.52 -52.533,-52.533 0,-29.013 23.519,-52.533 52.533,-52.533 m 0,-4 c -31.172,0 -56.533,25.361 -56.533,56.533 0,31.172 25.361,56.533 56.533,56.533 31.173,0 56.533,-25.361 56.533,-56.533 0,-31.172 -25.36,-56.533 -56.533,-56.533 z"
         id="path363"
         inkscape:connector-curvature="0"
         style="fill:#3a3a3a" />
      <path
         d="m 403.02,272.41 c -26.474,0 -48.012,-21.538 -48.012,-48.012 0,-26.474 21.538,-48.012 48.012,-48.012 26.475,0 48.013,21.538 48.013,48.012 0,26.474 -21.539,48.012 -48.013,48.012 z"
         id="path365"
         inkscape:connector-curvature="0"
         style="fill:#4c4c49" />
      <path
         d="m 403.02,178.39 c 25.412,0 46.013,20.6 46.013,46.012 0,25.412 -20.601,46.012 -46.013,46.012 -25.412,0 -46.012,-20.6 -46.012,-46.012 0,-25.412 20.6,-46.012 46.012,-46.012 m 0,-4 c -27.577,0 -50.012,22.435 -50.012,50.012 0,27.577 22.435,50.012 50.012,50.012 27.577,0 50.013,-22.435 50.013,-50.012 0,-27.577 -22.436,-50.012 -50.013,-50.012 z"
         id="path367"
         inkscape:connector-curvature="0"
         style="fill:#3a3a3a" />
      <path
         d="m 403.02,266.16 c -23.027,0 -41.762,-18.734 -41.762,-41.762 0,-23.028 18.734,-41.762 41.762,-41.762 23.028,0 41.763,18.734 41.763,41.762 0,23.028 -18.735,41.762 -41.763,41.762 z"
         id="path369"
         inkscape:connector-curvature="0"
         style="fill:#4c4c49" />
      <path
         d="m 403.02,184.64 c 21.96,0 39.763,17.801 39.763,39.762 0,21.961 -17.803,39.762 -39.763,39.762 -21.96,0 -39.762,-17.801 -39.762,-39.762 0,-21.961 17.802,-39.762 39.762,-39.762 m 0,-4 c -24.13,0 -43.762,19.631 -43.762,43.762 0,24.131 19.631,43.762 43.762,43.762 24.131,0 43.763,-19.631 43.763,-43.762 0,-24.131 -19.632,-43.762 -43.763,-43.762 z"
         id="path371"
         inkscape:connector-curvature="0"
         style="fill:#3a3a3a" />
      <path
         d="m 403.02,259.78 c -19.512,0 -35.386,-15.874 -35.386,-35.386 0,-19.512 15.874,-35.386 35.386,-35.386 19.513,0 35.388,15.874 35.388,35.386 0,19.512 -15.876,35.386 -35.388,35.386 z"
         id="path373"
         inkscape:connector-curvature="0"
         style="fill:#4c4c49" />
      <path
         d="m 403.02,191.01 c 18.438,0 33.388,14.946 33.388,33.386 0,18.439 -14.95,33.386 -33.388,33.386 -18.439,0 -33.386,-14.947 -33.386,-33.386 -0.001,-18.44 14.947,-33.386 33.386,-33.386 m 0,-4 c -20.615,0 -37.386,16.771 -37.386,37.386 0,20.615 16.771,37.386 37.386,37.386 20.615,0 37.388,-16.771 37.388,-37.386 0,-20.615 -16.773,-37.386 -37.388,-37.386 z"
         id="path375"
         inkscape:connector-curvature="0"
         style="fill:#3a3a3a" />
      <path
         d="m 403.02,255.85 c -17.342,0 -31.45,-14.108 -31.45,-31.45 0,-17.342 14.108,-31.45 31.45,-31.45 17.342,0 31.45,14.108 31.45,31.45 0,17.342 -14.109,31.45 -31.45,31.45 z"
         id="path377"
         inkscape:connector-curvature="0"
         style="fill:#353533" />
      <path
         d="m 403.02,194.95 c 16.265,0 29.45,13.185 29.45,29.45 0,16.265 -13.186,29.45 -29.45,29.45 -16.265,0 -29.45,-13.185 -29.45,-29.45 0,-16.265 13.185,-29.45 29.45,-29.45 m 0,-4 c -18.444,0 -33.45,15.006 -33.45,33.45 0,18.444 15.006,33.45 33.45,33.45 18.444,0 33.45,-15.006 33.45,-33.45 0,-18.444 -15.006,-33.45 -33.45,-33.45 z"
         id="path379"
         inkscape:connector-curvature="0"
         style="fill:#3a3a3a" />
      <path
         d="m 281.81,288.02 c -16.594,0 -30.094,-13.5 -30.094,-30.094 0,-16.594 13.5,-30.094 30.094,-30.094 16.594,0 30.094,13.5 30.094,30.094 0,16.594 -13.5,30.094 -30.094,30.094 z"
         id="path381"
         inkscape:connector-curvature="0"
         style="fill:#dbd0b3" />
      <path
         d="m 281.81,229.84 c 15.516,0 28.094,12.578 28.094,28.094 0,15.516 -12.578,28.094 -28.094,28.094 -15.516,0 -28.094,-12.578 -28.094,-28.094 0,-15.516 12.579,-28.094 28.094,-28.094 m 0,-4 c -17.697,0 -32.094,14.397 -32.094,32.094 0,17.697 14.397,32.094 32.094,32.094 17.697,0 32.094,-14.397 32.094,-32.094 0,-17.697 -14.397,-32.094 -32.094,-32.094 z"
         id="path383"
         inkscape:connector-curvature="0"
         style="fill:#3a3a3a" />
      <path
         d="m 253.71,257.5 c 0,16 12.578,28.094 28.094,28.094 15.516,0 28.094,-12.094 28.094,-28.094 z"
         id="path385"
         inkscape:connector-curvature="0"
         style="fill:#c6b99b" />
      <path
         d="m 281.81,279.63 c -11.965,0 -21.7,-9.735 -21.7,-21.7 0,-11.965 9.735,-21.7 21.7,-21.7 11.965,0 21.7,9.735 21.7,21.7 0,11.965 -9.735,21.7 -21.7,21.7 z"
         id="path387"
         inkscape:connector-curvature="0"
         style="fill:#db4f4f" />
      <path
         d="m 281.81,238.23 c 10.88,0 19.7,8.82 19.7,19.7 0,10.88 -8.82,19.7 -19.7,19.7 -10.88,0 -19.7,-8.82 -19.7,-19.7 0,-10.88 8.82,-19.7 19.7,-19.7 m 0,-4 c -13.068,0 -23.7,10.632 -23.7,23.7 0,13.068 10.632,23.7 23.7,23.7 13.068,0 23.7,-10.632 23.7,-23.7 0,-13.068 -10.632,-23.7 -23.7,-23.7 z"
         id="path389"
         inkscape:connector-curvature="0"
         style="fill:#3a3a3a" />
      <path
         d="m 281.81,240.23 c 10.543,0 19.125,8.288 19.65,18.7 0.017,-0.333 0.05,-0.663 0.05,-1 0,-10.88 -8.82,-19.7 -19.7,-19.7 -10.88,0 -19.7,8.82 -19.7,19.7 0,0.337 0.034,0.667 0.05,1 0.525,-10.412 9.108,-18.7 19.65,-18.7 z"
         id="path391"
         inkscape:connector-curvature="0"
         style="fill:#ea7a7a" />
      <path
         d="m 281.81,272.63 c -10.031,0 -18.293,-7.503 -19.524,-17.2 -0.104,0.821 -0.176,1.651 -0.176,2.5 0,10.88 8.82,19.7 19.7,19.7 10.88,0 19.7,-8.82 19.7,-19.7 0,-0.849 -0.072,-1.679 -0.176,-2.5 -1.23,9.697 -9.492,17.2 -19.524,17.2 z"
         id="path393"
         inkscape:connector-curvature="0"
         style="fill:#b73737" />
      <path
         d="m 502.5,226.5 c -9.374,0 -17,-7.626 -17,-17 v -41 c 0,-9.374 7.626,-17 17,-17 h 50 c 9.374,0 17,7.626 17,17 v 41 c 0,9.374 -7.626,17 -17,17 z"
         id="path395"
         inkscape:connector-curvature="0"
         style="fill:#4c4c49" />
      <path
         d="m 552.5,153.5 c 8.284,0 15,6.716 15,15 v 41 c 0,8.284 -6.716,15 -15,15 h -50 c -8.284,0 -15,-6.716 -15,-15 v -41 c 0,-8.284 6.716,-15 15,-15 h 50 m 0,-4 h -50 c -10.477,0 -19,8.523 -19,19 v 41 c 0,10.477 8.523,19 19,19 h 50 c 10.477,0 19,-8.523 19,-19 v -41 c 0,-10.477 -8.523,-19 -19,-19 z"
         id="path397"
         inkscape:connector-curvature="0"
         style="fill:#3a3a3a" />
      <path
         d="m 552.5,153.5 h -50 c -8.284,0 -15,6.716 -15,15 v 3 c 0,-8.284 6.716,-15 15,-15 h 50 c 8.284,0 15,6.716 15,15 v -3 c 0,-8.284 -6.716,-15 -15,-15 z"
         id="path399"
         inkscape:connector-curvature="0"
         style="fill:#777571" />
      <path
         d="m 552.5,220.5 h -50 c -8.284,0 -15,-6.716 -15,-15 v 4 c 0,8.284 6.716,15 15,15 h 50 c 8.284,0 15,-6.716 15,-15 v -4 c 0,8.284 -6.716,15 -15,15 z"
         id="path401"
         inkscape:connector-curvature="0"
         style="fill:#474541" />
      <path
         d="m 255.5,219.5 c -9.374,0 -17,-7.626 -17,-17 v -5 c 0,-9.374 7.626,-17 17,-17 h 50 c 9.374,0 17,7.626 17,17 v 5 c 0,9.374 -7.626,17 -17,17 z"
         id="path403"
         inkscape:connector-curvature="0"
         style="fill:#4c4c49" />
      <path
         d="m 305.5,182.5 c 8.284,0 15,6.716 15,15 v 5 c 0,8.284 -6.716,15 -15,15 h -50 c -8.284,0 -15,-6.716 -15,-15 v -5 c 0,-8.284 6.716,-15 15,-15 h 50 m 0,-4 h -50 c -10.477,0 -19,8.523 -19,19 v 5 c 0,10.477 8.523,19 19,19 h 50 c 10.477,0 19,-8.523 19,-19 v -5 c 0,-10.477 -8.523,-19 -19,-19 z"
         id="path405"
         inkscape:connector-curvature="0"
         style="fill:#3a3a3a" />
      <path
         d="m 305.5,182.5 h -50 c -8.284,0 -15,6.716 -15,15 v 2 c 0,-8.284 6.716,-15 15,-15 h 50 c 8.284,0 15,6.716 15,15 v -2 c 0,-8.284 -6.716,-15 -15,-15 z"
         id="path407"
         inkscape:connector-curvature="0"
         style="fill:#777571" />
      <path
         d="m 305.5,212.5 h -50 c -8.284,0 -15,-6.716 -15,-15 v 5 c 0,8.284 6.716,15 15,15 h 50 c 8.284,0 15,-6.716 15,-15 v -5 c 0,8.284 -6.716,15 -15,15 z"
         id="path409"
         inkscape:connector-curvature="0"
         style="fill:#474541" />
      <path
         d="m 511.13,290.82 c -14.685,0 -26.632,-11.947 -26.632,-26.632 0,-14.685 11.947,-26.631 26.632,-26.631 14.685,0 26.632,11.947 26.632,26.631 0,14.686 -11.947,26.632 -26.632,26.632 z"
         id="path411"
         inkscape:connector-curvature="0"
         style="fill:#c6b99b" />
      <path
         d="m 511.13,239.56 c 13.604,0 24.632,11.028 24.632,24.631 0,13.604 -11.028,24.632 -24.632,24.632 -13.604,0 -24.632,-11.028 -24.632,-24.632 0,-13.603 11.028,-24.631 24.632,-24.631 m 0,-4 c -15.788,0 -28.632,12.844 -28.632,28.631 0,15.787 12.844,28.632 28.632,28.632 15.788,0 28.632,-12.844 28.632,-28.632 0,-15.788 -12.844,-28.631 -28.632,-28.631 z"
         id="path413"
         inkscape:connector-curvature="0"
         style="fill:#3a3a3a" />
      <path
         d="m 511.13,293.82 c -13.582,0 -24.632,-11.05 -24.632,-24.632 0,-13.582 11.05,-24.631 24.632,-24.631 13.582,0 24.632,11.05 24.632,24.631 0,13.583 -11.05,24.632 -24.632,24.632 z"
         id="path415"
         inkscape:connector-curvature="0"
         style="fill:#4c4c49" />
      <path
         d="m 511.13,246.56 c 12.499,0 22.632,10.132 22.632,22.631 0,12.5 -10.133,22.632 -22.632,22.632 -12.499,0 -22.632,-10.132 -22.632,-22.632 0,-12.499 10.133,-22.631 22.632,-22.631 m 0,-4 c -14.685,0 -26.632,11.947 -26.632,26.631 0,14.685 11.947,26.632 26.632,26.632 14.685,0 26.632,-11.947 26.632,-26.632 0,-14.684 -11.947,-26.631 -26.632,-26.631 z"
         id="path417"
         inkscape:connector-curvature="0"
         style="fill:#3a3a3a" />
      <path
         d="m 488.5,269.5 c 0,12 10.133,22.632 22.632,22.632 12.499,0 22.632,-10.632 22.632,-22.632 z"
         id="path419"
         inkscape:connector-curvature="0"
         style="fill:#3f3f3d" />
      <path
         d="m 511.13,286.9 c -9.77,0 -17.717,-7.948 -17.717,-17.717 0,-9.769 7.947,-17.717 17.717,-17.717 9.77,0 17.717,7.948 17.717,17.717 0,9.769 -7.948,17.717 -17.717,17.717 z"
         id="path421"
         inkscape:connector-curvature="0"
         style="fill:#5e5c58" />
      <path
         d="m 511.13,253.47 c 8.68,0 15.717,7.037 15.717,15.717 0,8.68 -7.037,15.717 -15.717,15.717 -8.68,0 -15.717,-7.037 -15.717,-15.717 0,-8.68 7.037,-15.717 15.717,-15.717 m 0,-4 c -10.872,0 -19.717,8.845 -19.717,19.717 0,10.872 8.845,19.717 19.717,19.717 10.872,0 19.717,-8.845 19.717,-19.717 0,-10.872 -8.845,-19.717 -19.717,-19.717 z"
         id="path423"
         inkscape:connector-curvature="0"
         style="fill:#3a3a3a" />
      <path
         d="m 511.13,255.47 c 8.342,0 15.148,6.505 15.666,14.717 0.021,-0.333 0.051,-0.663 0.051,-1 0,-8.68 -7.037,-15.717 -15.717,-15.717 -8.68,0 -15.717,7.037 -15.717,15.717 0,0.337 0.029,0.667 0.051,1 0.518,-8.212 7.324,-14.717 15.666,-14.717 z"
         id="path425"
         inkscape:connector-curvature="0"
         style="fill:#777571" />
      <path
         d="m 511.13,280.9 c -8.001,0 -14.591,-5.983 -15.575,-13.717 -0.084,0.656 -0.142,1.321 -0.142,2 0,8.68 7.037,15.717 15.717,15.717 8.68,0 15.717,-7.037 15.717,-15.717 0,-0.679 -0.058,-1.344 -0.142,-2 -0.984,7.734 -7.574,13.717 -15.575,13.717 z"
         id="path427"
         inkscape:connector-curvature="0"
         style="fill:#474541" />
      <rect
         x="382.5"
         y="364.5"
         width="7"
         height="15"
         id="rect429"
         style="fill:#d42d66" />
      <rect
         x="389.5"
         y="364.5"
         width="7"
         height="15"
         id="rect431"
         style="fill:#b91617" />
      <rect
         x="396.5"
         y="364.5"
         width="7"
         height="15"
         id="rect433"
         style="fill:#ec7f22" />
      <rect
         x="403.5"
         y="364.5"
         width="7"
         height="15"
         id="rect435"
         style="fill:#e6aa26" />
      <rect
         x="410.5"
         y="364.5"
         width="7"
         height="15"
         id="rect437"
         style="fill:#858d1c" />
      <rect
         x="417.5"
         y="364.5"
         width="7"
         height="15"
         id="rect439"
         style="fill:#2391b9" />
      <polygon
         points="382.5,360.5 385.5,303.5 390.5,303.5 389.5,360.5 "
         id="polygon441"
         style="fill:#efacbb" />
      <polygon
         points="396.5,360.5 389.5,360.5 390.5,303.5 396.5,303.5 "
         id="polygon443"
         style="fill:#e58e69" />
      <polygon
         points="403.5,360.5 396.5,360.5 396.5,303.5 402.5,303.5 "
         id="polygon445"
         style="fill:#f7d03d" />
      <polygon
         points="408.5,303.5 410.5,360.5 403.5,360.5 402.5,303.5 "
         id="polygon447"
         style="fill:#f7e730" />
      <polygon
         points="413.5,303.5 417.5,360.5 410.5,360.5 408.5,303.5 "
         id="polygon449"
         style="fill:#d4d76e" />
      <polygon
         points="419.5,303.5 413.5,303.5 417.5,360.5 424.5,360.5 "
         id="polygon451"
         style="fill:#84dbec" />
      <g
         id="g455"
         style="opacity:0.18000004">
        <circle
           cx="425.23999"
           cy="204.09"
           r="24.256001"
           id="circle453"
           style="fill:#ffffff" />
      </g>
      <g
         id="g459"
         style="opacity:0.18000004">
        <circle
           cx="385.85999"
           cy="197.47"
           r="10.637"
           id="circle457"
           style="fill:#ffffff" />
      </g>
    </g>
  </g>
</svg>
