<?xml version="1.0" encoding="UTF-8" standalone="no"?>
<!-- Generator: Adobe Illustrator 24.0.3, SVG Export Plug-In . SVG Version: 6.00 Build 0)  -->

<svg
   xmlns:dc="http://purl.org/dc/elements/1.1/"
   xmlns:cc="http://creativecommons.org/ns#"
   xmlns:rdf="http://www.w3.org/1999/02/22-rdf-syntax-ns#"
   xmlns:svg="http://www.w3.org/2000/svg"
   xmlns="http://www.w3.org/2000/svg"
   xmlns:sodipodi="http://sodipodi.sourceforge.net/DTD/sodipodi-0.dtd"
   xmlns:inkscape="http://www.inkscape.org/namespaces/inkscape"
   version="1.1"
   id="Layer_1"
   x="0px"
   y="0px"
   viewBox="0 0 1757.3199 1757.32"
   xml:space="preserve"
   sodipodi:docname="selfhosting.svg"
   width="1757.3199"
   height="1757.3199"
   inkscape:version="0.92.5 (2060ec1f9f, 2020-04-08)"><metadata
   id="metadata75"><rdf:RDF><cc:Work
       rdf:about=""><dc:format>image/svg+xml</dc:format><dc:type
         rdf:resource="http://purl.org/dc/dcmitype/StillImage" /><dc:title></dc:title></cc:Work></rdf:RDF></metadata><defs
   id="defs73" /><sodipodi:namedview
   pagecolor="#ffffff"
   bordercolor="#666666"
   borderopacity="1"
   objecttolerance="10"
   gridtolerance="10"
   guidetolerance="10"
   inkscape:pageopacity="0"
   inkscape:pageshadow="2"
   inkscape:window-width="1007"
   inkscape:window-height="1312"
   id="namedview71"
   showgrid="false"
   inkscape:zoom="0.1003952"
   inkscape:cx="-549.60532"
   inkscape:cy="796.14496"
   inkscape:window-x="1029"
   inkscape:window-y="24"
   inkscape:window-maximized="0"
   inkscape:current-layer="Layer_1" />
<style
   type="text/css"
   id="style2">
	.st0{fill:#927DB2;}
	.st1{fill:#675A7D;}
	.st2{fill:#E2D3E9;}
	.st3{fill:#7E659C;}
	.st4{fill:#FFFFFF;}
</style>


<circle
   id="background"
   class="st2"
   cx="878.65997"
   cy="878.65997"
   r="878.65997"
   style="fill:#e2d3e9" />
<g
   id="g16"
   transform="translate(-79.930054,-214.17999)">
	<path
   class="st3"
   d="m 1403.07,552.68 -900.29,0.21 c -28.23,0.01 -51.11,22.9 -51.11,51.13 l 0.02,99.35 c 0.01,28.23 22.9,51.11 51.13,51.11 l 900.29,-0.21 c 28.23,-0.01 51.11,-22.9 51.11,-51.13 l -0.02,-99.36 c 0,-28.23 -22.89,-51.11 -51.13,-51.1 z"
   id="path8"
   inkscape:connector-curvature="0"
   style="fill:#7e659c" />
	<path
   class="st3"
   d="m 1403.07,786.6 -900.29,0.21 c -28.23,0.01 -51.11,22.9 -51.11,51.13 l 0.02,99.36 c 0.01,28.23 22.9,51.11 51.13,51.11 l 900.29,-0.21 c 28.23,-0.01 51.11,-22.9 51.11,-51.13 l -0.02,-99.35 c 0,-28.25 -22.89,-51.13 -51.13,-51.12 z"
   id="path10"
   inkscape:connector-curvature="0"
   style="fill:#7e659c" />
	<path
   class="st3"
   d="m 1403.07,1020.51 -900.29,0.21 c -28.23,0.01 -51.11,22.9 -51.11,51.13 l 0.02,99.35 c 0.01,28.23 22.9,51.11 51.13,51.11 l 900.29,-0.21 c 28.23,-0.01 51.11,-22.9 51.11,-51.13 l -0.02,-99.35 c 0,-28.23 -22.89,-51.11 -51.13,-51.11 z"
   id="path12"
   inkscape:connector-curvature="0"
   style="fill:#7e659c" />
	<path
   class="st3"
   d="m 1403.07,1254.52 -900.29,0.21 c -28.23,0.01 -51.11,22.9 -51.11,51.13 l 0.02,99.35 c 0.01,28.23 22.9,51.11 51.13,51.11 l 900.29,-0.21 c 28.23,-0.01 51.11,-22.9 51.11,-51.13 l -0.02,-99.36 c 0,-28.23 -22.89,-51.11 -51.13,-51.1 z"
   id="path14"
   inkscape:connector-curvature="0"
   style="fill:#7e659c" />
</g>
<path
   class="st3"
   d="m 846.96995,1391.22 -0.79,-48.18 24.05,12.57 0.36,21.71 31.56,-0.5 24.45,13.09 z m 61.45,-18.14 v -30.71 l 24.48,12.65 v 32.57 z m 0,58.9 v -21.52 l -31.8,-0.02 c 0.03,0.14 -24.63,-13.71 -24.63,-13.71 l 80.92,0.39 v 48.19 z m -61.86,0 v -31.49 l 23.84,14.17 v 29.97 z"
   id="path18"
   inkscape:connector-curvature="0"
   style="fill:#7e659c" />
<g
   id="g60"
   transform="translate(-79.930054,-214.17999)">
	<g
   id="g28">
		<path
   class="st4"
   d="m 974.36,682.06 -417.7,0.1 c -13.81,0 -25.11,-11.29 -25.11,-25.1 v -6.75 c 0,-13.81 11.29,-25.11 25.1,-25.11 l 417.7,-0.1 c 13.81,0 25.11,11.29 25.11,25.1 v 6.75 c 0,13.8 -11.3,25.1 -25.1,25.11 z"
   id="path20"
   inkscape:connector-curvature="0"
   style="fill:#ffffff" />
		<circle
   class="st4"
   cx="1128.21"
   cy="653.53998"
   r="28.48"
   id="circle22"
   style="fill:#ffffff" />
		<circle
   class="st4"
   cx="1237.05"
   cy="653.51001"
   r="28.48"
   id="circle24"
   style="fill:#ffffff" />
		<circle
   class="st4"
   cx="1345.89"
   cy="653.48999"
   r="28.48"
   id="circle26"
   style="fill:#ffffff" />
	</g>
	<g
   id="g38">
		<path
   class="st4"
   d="m 974.36,915.97 -417.7,0.1 c -13.81,0 -25.11,-11.29 -25.11,-25.1 v -6.75 c 0,-13.81 11.29,-25.11 25.1,-25.11 l 417.7,-0.1 c 13.81,0 25.11,11.29 25.11,25.1 v 6.75 c 0,13.81 -11.3,25.11 -25.1,25.11 z"
   id="path30"
   inkscape:connector-curvature="0"
   style="fill:#ffffff" />
		<circle
   class="st4"
   cx="1128.21"
   cy="887.46002"
   r="28.48"
   id="circle32"
   style="fill:#ffffff" />
		<circle
   class="st4"
   cx="1237.05"
   cy="887.42999"
   r="28.48"
   id="circle34"
   style="fill:#ffffff" />
		<circle
   class="st4"
   cx="1345.89"
   cy="887.40002"
   r="28.48"
   id="circle36"
   style="fill:#ffffff" />
	</g>
	<g
   id="g48">
		<path
   class="st4"
   d="m 974.36,1149.89 -417.7,0.1 c -13.81,0 -25.11,-11.29 -25.11,-25.1 v -6.75 c 0,-13.81 11.29,-25.11 25.1,-25.11 l 417.7,-0.1 c 13.81,0 25.11,11.29 25.11,25.1 v 6.75 c 0,13.8 -11.3,25.1 -25.1,25.11 z"
   id="path40"
   inkscape:connector-curvature="0"
   style="fill:#ffffff" />
		<circle
   class="st4"
   cx="1128.21"
   cy="1121.37"
   r="28.48"
   id="circle42"
   style="fill:#ffffff" />
		<circle
   class="st4"
   cx="1237.05"
   cy="1121.35"
   r="28.48"
   id="circle44"
   style="fill:#ffffff" />
		<circle
   class="st4"
   cx="1345.89"
   cy="1121.3199"
   r="28.48"
   id="circle46"
   style="fill:#ffffff" />
	</g>
	<g
   id="g58">
		<path
   class="st4"
   d="m 974.36,1383.9 -417.7,0.1 c -13.81,0 -25.11,-11.29 -25.11,-25.1 v -6.75 c 0,-13.81 11.29,-25.11 25.1,-25.11 l 417.7,-0.1 c 13.81,0 25.11,11.29 25.11,25.1 v 6.75 c 0,13.8 -11.3,25.1 -25.1,25.11 z"
   id="path50"
   inkscape:connector-curvature="0"
   style="fill:#ffffff" />
		<circle
   class="st4"
   cx="1128.21"
   cy="1355.38"
   r="28.48"
   id="circle52"
   style="fill:#ffffff" />
		<circle
   class="st4"
   cx="1237.05"
   cy="1355.35"
   r="28.48"
   id="circle54"
   style="fill:#ffffff" />
		<circle
   class="st4"
   cx="1345.89"
   cy="1355.33"
   r="28.48"
   id="circle56"
   style="fill:#ffffff" />
	</g>
</g>
<g
   id="g68"
   transform="translate(-79.930054,-214.17999)">
	<path
   class="st3"
   d="m 1005.54,1535.14 v -34.29 c 0,-18.68 -15.28,-33.96 -33.96,-33.96 v 0 c -18.68,0 -33.96,15.28 -33.96,33.96 v 34.29 c 10.41,-4.52 21.89,-7.03 33.96,-7.03 12.07,0 23.55,2.51 33.96,7.03 z"
   id="path62"
   inkscape:connector-curvature="0"
   style="fill:#7e659c" />
	<path
   class="st3"
   d="M 889.95,1588.31 H 393.1 c -12.41,0 -22.57,10.16 -22.57,22.57 v 5.29 c 0,12.41 10.16,22.57 22.57,22.57 h 496.85 c -2.46,-7.97 -3.79,-16.44 -3.79,-25.22 0,-8.78 1.33,-17.24 3.79,-25.21 z"
   id="path64"
   inkscape:connector-curvature="0"
   style="fill:#7e659c" />
	<path
   class="st3"
   d="m 1512.81,1588.31 h -459.6 c 2.46,7.97 3.79,16.44 3.79,25.22 0,8.78 -1.33,17.24 -3.79,25.22 h 459.6 c 12.41,0 22.57,-10.16 22.57,-22.57 v -5.29 c 0,-12.42 -10.15,-22.58 -22.57,-22.58 z"
   id="path66"
   inkscape:connector-curvature="0"
   style="fill:#7e659c" />
</g>
</svg>
