<?xml version="1.0" standalone="no"?>
<!DOCTYPE svg PUBLIC "-//W3C//DTD SVG 20010904//EN"
 "http://www.w3.org/TR/2001/REC-SVG-20010904/DTD/svg10.dtd">
<svg version="1.0" xmlns="http://www.w3.org/2000/svg"
 width="500.000000pt" height="500.000000pt" viewBox="0 0 500.000000 500.000000"
 preserveAspectRatio="xMidYMid meet">
<metadata>
Created by potrace 1.16, written by Peter Selinger 2001-2019
</metadata>
<g transform="translate(0.000000,500.000000) scale(0.100000,-0.100000)"
fill="#000000" stroke="none">
<path d="M1710 3964 c-58 -68 -90 -114 -90 -129 0 -13 16 -60 36 -104 l37 -80
-121 -378 c-67 -208 -129 -401 -138 -429 l-17 -51 -70 30 c-103 43 -232 67
-365 67 -255 0 -488 -91 -669 -263 -100 -95 -157 -173 -214 -292 -267 -556 39
-1213 638 -1372 83 -22 120 -26 238 -26 155 0 235 13 362 63 226 87 408 254
518 475 83 166 99 236 99 435 0 179 -7 220 -66 374 -55 143 -204 334 -325 418
-24 16 -43 32 -43 37 0 13 42 136 50 144 4 5 220 -248 479 -562 410 -496 470
-573 461 -590 -5 -11 -10 -39 -10 -63 0 -64 42 -117 111 -139 l35 -11 23 -117
c12 -64 25 -126 28 -138 4 -19 1 -23 -21 -23 -24 0 -26 -4 -26 -40 l0 -40 105
0 105 0 0 39 c0 39 -1 40 -37 43 l-37 3 -28 145 c-17 91 -24 146 -17 148 26 9
69 56 79 86 10 33 12 33 113 51 56 10 107 20 113 22 6 2 25 -40 43 -97 50
-150 116 -255 241 -380 111 -111 203 -173 331 -224 128 -50 192 -60 364 -60
191 1 264 17 420 93 292 143 484 399 540 720 83 475 -207 948 -670 1094 -240
76 -486 58 -718 -50 -94 -45 -98 -46 -111 -27 -8 10 -84 115 -169 232 l-155
213 25 74 24 74 57 11 c111 22 151 40 206 94 57 55 87 119 67 139 -9 9 -106
12 -349 11 -323 -1 -452 -10 -475 -33 -24 -24 142 -127 308 -191 33 -13 61
-24 62 -25 2 -1 -4 -25 -12 -53 l-16 -52 -684 0 c-377 0 -685 2 -685 5 0 3 7
22 15 42 20 48 105 335 105 355 0 8 -13 45 -30 81 -16 37 -30 71 -30 77 0 6
21 36 47 66 l47 54 146 0 c130 0 149 2 163 18 21 23 22 61 1 90 -15 21 -21 22
-184 22 l-169 0 -91 -106z m1294 -873 c-11 -72 -342 -1186 -348 -1171 -2 8
-10 42 -16 75 -6 33 -14 68 -16 77 -4 12 2 17 23 20 25 3 28 7 28 43 l0 40
-102 3 -103 3 0 -46 c0 -44 1 -45 33 -45 l33 0 22 -112 c12 -61 20 -113 18
-115 -1 -2 -219 257 -483 574 l-480 578 21 57 21 58 678 0 677 0 -6 -39z m263
-217 l140 -192 -91 -94 c-183 -190 -276 -417 -276 -675 0 -57 -2 -103 -4 -103
-2 0 -48 -9 -101 -20 -119 -24 -134 -24 -163 0 l-23 19 176 607 c177 610 193
660 199 653 2 -2 66 -90 143 -195z m-2087 -148 c60 -16 157 -51 177 -64 10 -6
0 -47 -41 -168 -29 -88 -59 -171 -66 -185 -20 -39 -263 -279 -283 -279 -26 0
-74 -27 -81 -45 -3 -9 -6 -32 -6 -51 0 -103 152 -117 176 -17 4 17 53 74 129
148 67 66 133 138 148 160 14 22 49 110 78 195 29 85 56 159 60 164 5 6 47
-30 101 -85 144 -146 214 -291 240 -493 52 -410 -227 -809 -632 -906 -107 -25
-280 -27 -382 -4 -473 108 -759 599 -617 1061 96 309 358 534 684 587 55 8
259 -3 315 -18z m3057 -5 c298 -85 515 -306 594 -606 25 -95 30 -277 10 -370
-56 -261 -238 -488 -478 -596 -160 -73 -382 -93 -547 -50 -230 61 -430 218
-535 420 -34 66 -86 201 -79 206 9 5 727 137 743 136 11 0 41 -4 67 -7 41 -5
50 -3 72 20 37 36 35 88 -3 127 -16 16 -36 29 -44 29 -14 0 -434 565 -439 591
-6 27 160 96 286 119 81 14 270 4 353 -19z m-532 -448 c113 -156 205 -286 205
-291 0 -6 -238 -53 -702 -139 l-28 -5 0 64 c0 148 45 313 122 442 40 68 174
219 189 214 5 -2 101 -130 214 -285z"/>
</g>
</svg>
