<?xml version="1.0" standalone="no"?>
<!DOCTYPE svg PUBLIC "-//W3C//DTD SVG 20010904//EN"
 "http://www.w3.org/TR/2001/REC-SVG-20010904/DTD/svg10.dtd">
<svg version="1.0" xmlns="http://www.w3.org/2000/svg"
 width="2125.000000pt" height="2125.000000pt" viewBox="0 0 2125.000000 2125.000000"
 preserveAspectRatio="xMidYMid meet">
<metadata>
Created by potrace 1.16, written by Peter Selinger 2001-2019
</metadata>
<g transform="translate(0.000000,2125.000000) scale(0.100000,-0.100000)"
fill="#000000" stroke="none">
<path d="M6970 17933 c-217 -16 -479 -62 -699 -124 -123 -35 -288 -90 -310
-104 -4 -2 536 -547 1200 -1212 1138 -1138 1210 -1212 1239 -1274 43 -93 56
-172 43 -257 -23 -151 21 -100 -826 -949 -523 -523 -785 -780 -817 -797 -133
-72 -302 -72 -430 1 -28 16 -502 482 -1256 1235 l-1211 1210 -61 -183 c-105
-320 -159 -610 -170 -919 -23 -603 87 -1126 344 -1630 465 -917 1388 -1568
2514 -1774 255 -47 406 -60 695 -60 350 -1 578 25 889 100 l148 36 213 -212
212 -212 54 27 c30 15 75 42 100 60 l47 33 23 -24 c32 -34 39 -30 39 21 0 62
26 184 56 264 53 141 93 191 368 469 l260 263 586 -583 c322 -321 494 -491
383 -378 l-203 205 537 537 538 538 -552 553 -552 552 30 114 c115 444 142
988 73 1476 -79 563 -298 1137 -608 1595 -555 821 -1398 1314 -2391 1399 -110
10 -397 12 -505 4z"/>
<path d="M11737 10892 l-537 -537 380 -380 380 -380 -233 -233 c-127 -128
-259 -254 -292 -279 -118 -91 -293 -157 -446 -170 -38 -3 -69 -9 -69 -13 0 -3
11 -17 25 -30 l24 -23 -25 -30 c-14 -17 -41 -62 -61 -100 l-35 -70 2189 -2187
c2036 -2035 2195 -2192 2288 -2253 174 -114 342 -184 549 -229 135 -29 425
-31 561 -4 300 59 570 202 780 413 506 508 584 1286 188 1887 -61 94 -234 269
-2592 2629 -1389 1390 -2528 2527 -2531 2527 -3 0 -247 -242 -543 -538z m4698
-5017 c204 -54 372 -224 420 -426 19 -82 19 -199 0 -274 -51 -200 -217 -367
-415 -420 -72 -19 -217 -19 -293 1 -199 51 -360 212 -411 411 -20 76 -20 221
-1 293 53 198 217 362 415 414 73 19 212 20 285 1z"/>
</g>
</svg>
