<?xml version="1.0" standalone="no"?>
<!DOCTYPE svg PUBLIC "-//W3C//DTD SVG 20010904//EN"
 "http://www.w3.org/TR/2001/REC-SVG-20010904/DTD/svg10.dtd">
<svg version="1.0" xmlns="http://www.w3.org/2000/svg"
 width="403.000000pt" height="399.000000pt" viewBox="0 0 403.000000 399.000000"
 preserveAspectRatio="xMidYMid meet">
<metadata>
Created by potrace 1.16, written by Peter Selinger 2001-2019
</metadata>
<g transform="translate(0.000000,399.000000) scale(0.100000,-0.100000)"
fill="#000000" stroke="none">
<path d="M2610 3969 c-19 -12 -41 -30 -48 -40 -13 -18 -38 -19 -583 -19 -475
0 -575 -2 -604 -14 -19 -8 -35 -20 -35 -25 0 -8 -110 -11 -342 -11 -189 0
-373 -5 -410 -10 -86 -13 -153 -43 -258 -118 -132 -94 -141 -103 -161 -146
-18 -39 -19 -85 -19 -834 l0 -793 -71 -222 -72 -222 3 -610 c2 -673 1 -657 66
-714 18 -17 53 -36 76 -42 24 -7 44 -13 46 -14 1 -1 -3 -25 -9 -54 -8 -40 -8
-55 1 -66 11 -13 248 -15 1830 -15 2050 0 1852 -9 1831 82 -6 28 -10 52 -9 53
2 1 22 7 45 13 55 16 101 56 124 107 17 37 19 79 19 637 l0 597 -75 238 -75
237 0 790 c0 903 6 834 -91 919 -120 106 -252 177 -328 177 -22 0 -30 6 -35
24 -3 14 -18 38 -32 56 -51 60 -51 60 -416 60 -322 0 -334 -1 -368 -21z m1146
-330 c31 -15 48 -32 63 -63 21 -42 21 -55 21 -809 l0 -767 -815 0 -815 0 0 24
c0 21 8 27 53 41 220 72 392 245 468 470 22 64 24 86 24 265 0 179 -2 201 -24
265 -68 202 -195 345 -386 436 -241 115 -521 82 -743 -86 -120 -90 -213 -236
-253 -394 -18 -73 -20 -104 -17 -255 4 -153 8 -179 31 -244 77 -214 243 -381
450 -451 43 -15 53 -22 55 -44 l3 -27 -840 0 -841 0 0 767 c0 753 0 767 21
809 14 30 32 48 62 63 l42 21 1699 0 c1696 0 1700 0 1742 -21z m-1508 -244
c388 -123 582 -566 408 -930 -116 -243 -344 -388 -611 -388 -432 0 -749 393
-660 818 8 39 35 112 60 163 93 188 285 329 495 362 85 14 221 2 308 -25z
m-148 -1380 c0 -10 -10 -15 -30 -15 -20 0 -30 5 -30 15 0 10 10 15 30 15 20 0
30 -5 30 -15z m1748 -87 c5 -18 40 -128 77 -245 47 -149 66 -220 61 -238 -15
-58 94 -55 -1963 -55 -1274 0 -1900 3 -1925 10 -43 12 -62 40 -53 78 3 15 38
129 77 255 l71 227 1823 0 1823 0 9 -32z m-2873 -578 l865 0 0 -75 0 -75 -849
2 c-840 3 -850 3 -877 24 -43 31 -65 67 -71 112 l-6 42 36 -15 c31 -13 154
-15 902 -15z m3010 -20 c-9 -53 -55 -106 -103 -120 -24 -6 -322 -10 -829 -10
l-793 0 0 75 0 75 833 0 c664 1 838 4 862 14 17 7 32 12 33 10 2 -1 1 -21 -3
-44z m-1865 -55 l0 -75 -35 0 -35 0 0 75 0 75 35 0 35 0 0 -75z m1620 -897
c40 -172 75 -319 78 -326 3 -9 -361 -12 -1798 -12 -1437 0 -1801 3 -1798 13 3
6 38 153 78 325 l73 312 1647 0 1646 0 74 -312z"/>
<path d="M2965 3486 c-43 -19 -94 -74 -106 -116 -6 -21 -9 -131 -7 -286 l3
-251 27 -40 c16 -24 44 -49 70 -62 42 -20 59 -21 338 -21 279 0 296 1 338 21
26 13 54 38 70 62 l27 41 0 271 c0 270 0 272 -24 307 -13 19 -40 46 -59 59
-35 24 -36 24 -341 26 -238 2 -313 0 -336 -11z"/>
<path d="M495 3196 c-42 -18 -92 -73 -106 -114 -6 -18 -9 -66 -7 -106 4 -90
35 -143 100 -175 42 -20 59 -21 338 -21 279 0 296 1 338 21 26 13 54 38 70 62
24 37 27 50 27 132 0 80 -3 96 -24 127 -13 19 -40 46 -59 59 -35 24 -36 24
-341 26 -238 2 -313 0 -336 -11z"/>
<path d="M750 2726 c-90 -24 -173 -96 -213 -185 -30 -65 -30 -187 0 -253 74
-161 269 -238 424 -166 275 127 249 516 -41 602 -63 19 -108 19 -170 2z m225
-71 c155 -90 182 -308 55 -435 -137 -138 -377 -92 -456 87 -40 90 -13 227 59
301 86 90 234 111 342 47z"/>
<path d="M740 2634 c-85 -37 -142 -124 -143 -219 -1 -134 102 -235 240 -235
173 0 283 177 209 335 -25 54 -71 100 -123 122 -43 17 -139 16 -183 -3z"/>
<path d="M3037 2626 c-94 -35 -164 -110 -188 -201 -28 -101 18 -243 102 -319
54 -49 103 -66 185 -66 106 1 186 56 240 167 25 51 29 69 29 148 0 98 -10 126
-67 191 -67 76 -209 114 -301 80z m143 -37 c56 -13 111 -48 141 -91 l23 -33
-40 36 c-103 92 -258 92 -358 0 l-29 -26 18 28 c28 44 122 92 185 96 8 0 35
-4 60 -10z"/>
<path d="M1910 3374 c-232 -49 -431 -246 -486 -479 -23 -101 -15 -256 18 -352
55 -154 176 -291 322 -362 104 -50 169 -65 281 -65 111 0 176 15 280 64 144
69 268 207 322 360 38 109 44 265 14 375 -31 112 -82 197 -171 287 -61 61 -95
86 -161 118 -140 67 -278 85 -419 54z"/>
</g>
</svg>
