<?xml version="1.0" standalone="no"?>
<!DOCTYPE svg PUBLIC "-//W3C//DTD SVG 20010904//EN"
 "http://www.w3.org/TR/2001/REC-SVG-20010904/DTD/svg10.dtd">
<svg version="1.0" xmlns="http://www.w3.org/2000/svg"
 width="1757.000000pt" height="1757.000000pt" viewBox="0 0 1757.000000 1757.000000"
 preserveAspectRatio="xMidYMid meet">
<metadata>
Created by potrace 1.16, written by Peter Selinger 2001-2019
</metadata>
<g transform="translate(0.000000,1757.000000) scale(0.100000,-0.100000)"
fill="#000000" stroke="none">
<path d="M4170 14180 c-164 -21 -323 -129 -393 -266 -63 -124 -62 -114 -61
-739 1 -552 1 -572 22 -641 51 -169 191 -305 357 -349 53 -13 556 -15 4630
-15 4072 0 4577 2 4630 15 179 47 323 191 370 370 22 85 22 1162 0 1244 -50
188 -204 336 -392 376 -59 13 -701 14 -4588 14 -2486 -1 -4545 -5 -4575 -9z
m4876 -744 c59 -27 116 -90 132 -145 7 -21 12 -76 12 -123 0 -70 -4 -92 -26
-136 -14 -29 -42 -66 -62 -82 -77 -64 73 -60 -2272 -58 l-2135 3 -46 27 c-54
32 -93 75 -114 125 -20 46 -20 211 -1 257 21 51 76 107 131 132 l50 24 2140 0
2140 0 51 -24z m1515 14 c82 -23 162 -101 189 -184 18 -57 15 -148 -8 -199
-66 -150 -240 -215 -384 -144 -173 85 -214 312 -80 450 74 77 179 106 283 77z
m1134 -18 c94 -48 154 -145 155 -248 0 -119 -54 -210 -157 -260 -184 -90 -404
43 -406 245 -1 130 69 232 190 277 53 20 167 13 218 -14z m1098 -5 c207 -122
190 -419 -30 -514 -58 -25 -157 -22 -218 5 -107 49 -169 142 -169 257 0 119
51 201 157 255 57 29 68 31 138 28 60 -4 86 -10 122 -31z"/>
<path d="M4148 11839 c-152 -22 -299 -128 -372 -268 -61 -119 -61 -119 -60
-742 1 -546 2 -568 22 -635 52 -170 190 -303 363 -349 46 -13 694 -15 4619
-15 4036 0 4572 2 4629 15 179 43 329 190 376 370 13 50 15 149 15 625 0 517
-2 571 -18 631 -44 158 -167 290 -328 351 l-59 23 -4565 1 c-2511 1 -4591 -2
-4622 -7z m4885 -735 c56 -19 131 -97 148 -153 6 -21 9 -80 8 -132 -4 -86 -7
-101 -34 -145 -34 -55 -111 -107 -172 -118 -21 -3 -983 -6 -2139 -6 -2312 0
-2158 -4 -2238 62 -62 51 -86 115 -86 228 0 71 5 105 19 135 22 48 97 118 143
132 23 8 704 11 2169 12 1927 1 2140 -1 2182 -15z m1538 4 c119 -41 193 -149
191 -280 -3 -204 -225 -336 -408 -242 -65 33 -124 101 -143 164 -55 183 78
369 265 370 34 0 76 -5 95 -12z m1114 -12 c65 -30 112 -78 143 -144 20 -45 23
-65 20 -125 -5 -85 -26 -135 -81 -190 -55 -55 -117 -80 -199 -80 -160 0 -281
122 -280 283 0 115 52 199 154 249 80 40 167 43 243 7z m1085 3 c96 -43 159
-132 167 -234 14 -175 -111 -309 -288 -308 -203 2 -336 222 -245 406 31 65 90
120 150 141 62 22 162 20 216 -5z"/>
<path d="M4150 9503 c-175 -29 -327 -152 -399 -321 -38 -92 -44 -199 -38 -752
6 -482 7 -519 27 -581 24 -81 84 -174 148 -230 56 -49 164 -104 236 -119 35
-7 1444 -9 4631 -8 l4580 3 59 23 c164 62 289 197 331 359 22 86 22 1161 0
1248 -48 182 -209 336 -393 374 -38 8 -1351 11 -4605 10 -2504 -1 -4563 -4
-4577 -6z m4888 -738 c49 -21 110 -80 133 -130 26 -56 26 -213 0 -270 -24 -53
-75 -103 -131 -129 l-45 -21 -2100 -3 c-1155 -2 -2123 0 -2151 3 -73 9 -151
58 -189 119 -27 44 -30 59 -34 145 -2 54 2 111 9 134 15 49 83 125 135 148 38
18 129 19 2188 19 1917 0 2152 -2 2185 -15z m1544 -1 c180 -61 240 -302 114
-452 -47 -54 -108 -84 -187 -90 -130 -9 -224 41 -278 149 -72 144 -20 308 120
378 72 36 155 41 231 15z m1085 3 c110 -41 183 -147 183 -267 0 -120 -73 -226
-183 -267 -46 -17 -147 -16 -197 2 -154 54 -228 241 -155 390 30 63 90 118
149 139 49 17 159 19 203 3z m1103 -8 c55 -25 114 -80 143 -134 31 -57 31
-193 0 -250 -29 -55 -99 -118 -156 -140 -71 -27 -182 -17 -244 21 -193 119
-182 398 19 498 67 34 170 36 238 5z"/>
<path d="M4150 7163 c-86 -14 -181 -59 -257 -120 -55 -45 -126 -152 -155 -233
l-23 -65 1 -580 c1 -565 1 -582 22 -651 26 -84 85 -177 150 -235 56 -49 164
-104 236 -119 35 -7 1444 -9 4631 -8 l4580 3 59 23 c162 61 290 199 331 357
22 88 22 1162 0 1250 -47 180 -197 327 -376 370 -57 13 -589 15 -4619 13
-2505 0 -4566 -3 -4580 -5z m8637 -751 c49 -25 98 -75 126 -127 31 -57 31
-193 0 -250 -51 -95 -147 -154 -249 -155 -120 0 -210 54 -261 158 -82 167 23
374 204 401 61 9 130 -2 180 -27z m-3742 9 c52 -23 103 -74 126 -126 26 -56
26 -214 0 -270 -24 -53 -75 -103 -131 -129 l-45 -21 -2090 -3 c-1149 -2 -2118
0 -2152 3 -83 9 -157 53 -198 119 -27 45 -30 59 -33 149 -3 74 0 110 12 142
21 53 77 112 130 136 40 18 119 19 2191 19 2061 0 2152 -1 2190 -19z m1537 3
c63 -21 122 -74 153 -139 55 -112 26 -259 -67 -339 -86 -74 -212 -88 -317 -35
-217 108 -197 431 32 516 46 17 146 16 199 -3z m1088 1 c65 -23 116 -69 149
-137 71 -142 14 -314 -127 -385 -53 -26 -192 -25 -247 2 -99 49 -157 143 -157
255 0 114 55 205 154 254 61 31 159 35 228 11z"/>
<path d="M8830 5034 c-77 -21 -153 -74 -195 -137 -53 -81 -65 -144 -65 -347 0
-97 2 -179 6 -182 3 -3 28 3 57 14 165 63 399 63 565 0 45 -17 54 -18 59 -6 3
8 3 101 1 206 -4 145 -9 204 -21 236 -41 108 -130 188 -242 217 -71 18 -94 18
-165 -1z"/>
<path d="M9080 3997 l0 -154 119 -72 c66 -39 122 -71 125 -71 4 0 5 73 4 163
l-3 162 -122 63 -123 63 0 -154z"/>
<path d="M8462 3906 c2 -129 7 -238 10 -242 4 -3 184 -3 400 2 l393 9 -125 67
-125 66 -151 -5 -151 -6 -6 54 c-4 30 -7 79 -7 111 l0 56 -115 61 c-63 34
-118 61 -121 61 -4 0 -5 -105 -2 -234z"/>
<path d="M3045 3816 c-46 -20 -94 -64 -118 -110 -17 -33 -21 -58 -21 -126 0
-98 19 -146 78 -197 70 -62 -115 -58 2611 -58 2494 0 2500 0 2497 20 -1 11
-10 63 -18 115 -19 115 -11 244 22 353 5 16 -119 17 -2508 17 -2050 -1 -2519
-3 -2543 -14z"/>
<path d="M9734 3813 c33 -108 39 -313 13 -418 -9 -33 -13 -63 -11 -67 8 -12
4561 -10 4625 2 67 13 121 48 156 102 25 37 28 52 31 137 3 93 2 97 -30 151
-25 42 -45 61 -87 82 l-53 28 -2325 0 c-2209 0 -2324 -1 -2319 -17z"/>
<path d="M8520 3606 c0 -2 54 -34 120 -70 l119 -66 161 0 160 0 0 -109 0 -110
117 -63 c65 -35 121 -64 125 -66 5 -2 8 104 8 236 l0 239 -262 6 c-295 8 -548
9 -548 3z"/>
<path d="M8460 3412 l0 -160 112 -58 c61 -33 115 -60 120 -62 4 -2 8 64 8 147
l0 150 -112 67 c-62 37 -116 69 -120 71 -5 2 -8 -68 -8 -155z"/>
</g>
</svg>
